<svg width="296" height="44" viewBox="0 0 296 44" fill="none" xmlns="http://www.w3.org/2000/svg">
<path d="M8.97856 22.1562C8.97856 22.0465 8.66342 21.9567 8.27824 21.9567C7.00335 21.9567 5.24053 21.171 4.0733 20.0825C3.89307 19.9145 3.43086 19.4841 3.04615 19.1261C2.09258 18.2387 1.83652 17.9092 1.83652 17.5697C1.83652 17.4106 1.69908 17.1666 1.53108 17.0274C1.06155 16.6384 0.62969 14.9197 0.486829 12.8714C0.37826 11.3148 0.426327 10.7957 0.786477 9.63525C1.3767 7.73357 2.12732 6.51454 2.86648 6.25731C3.26449 6.1188 3.46899 5.90855 3.46899 5.63785C3.46899 5.41248 3.72151 4.98947 4.03015 4.69784C4.63466 4.12665 6.02313 3.37818 6.47821 3.37818C6.6321 3.37818 6.70782 3.29711 6.64647 3.19802C6.4815 2.93154 8.07443 2.58876 9.59074 2.56445C11.2714 2.5375 12.9862 2.81686 13.7739 3.24593C14.1106 3.42933 14.4952 3.57995 14.6286 3.58064C14.762 3.58125 15.1727 3.8569 15.5413 4.19303C15.9099 4.52915 16.2791 4.80416 16.3615 4.80416C16.444 4.80416 16.7435 5.19934 17.027 5.68232C17.3106 6.16531 17.7736 6.77714 18.0559 7.04195C18.3383 7.30677 18.5693 7.73951 18.5693 8.0036C18.5693 8.26769 18.707 8.53653 18.8754 8.60102C19.1093 8.69062 19.1815 9.07354 19.1815 10.2243C19.1815 11.0925 19.2679 11.7304 19.3855 11.7304C19.4978 11.7304 19.5896 12.0748 19.5896 12.4957C19.5896 13.6629 20.4969 16.7104 20.9914 17.204C21.2305 17.4427 21.4261 17.7755 21.4261 17.9436C21.4261 18.1116 21.5162 18.2491 21.6263 18.2491C21.7364 18.2491 21.8841 18.4783 21.9545 18.7584C22.0249 19.0385 22.1673 19.2677 22.2709 19.2677C22.3745 19.2677 22.5182 19.4211 22.5903 19.6086C22.6624 19.7961 22.8661 20.1104 23.043 20.307C23.2199 20.5036 23.4764 20.8014 23.6129 20.9687L23.861 21.2729L20.3479 21.2985C17.0304 21.3227 15.87 21.4152 12.9577 21.8878C10.7442 22.2471 8.97856 22.3662 8.97856 22.1562Z" fill="#F7BA16"/>
<path d="M20.3038 41.8565C19.7426 41.7441 18.5948 41.3226 17.7531 40.9198C15.7331 39.9532 13.7934 38.0408 12.8929 36.128C12.0669 34.3735 11.8466 33.3936 11.8404 31.4471C11.8339 29.3996 12.3673 27.9493 13.5881 26.6953C15.3631 24.8721 17.9086 24.2165 22.3232 24.4457C26.9891 24.6879 29.6832 25.5481 31.0617 27.2357C33.9051 30.7165 32.1835 37.3747 27.6905 40.2737C25.523 41.6722 22.5575 42.3076 20.3038 41.8565Z" fill="#E67820"/>
<path d="M31.4675 22.5357C29.341 22.2011 27.9671 21.5196 26.5328 20.0877C25.7263 19.2826 25.1966 18.527 24.8675 17.7123L24.385 16.5176L24.4071 12.9526C24.4259 9.92324 24.4913 9.2152 24.8426 8.23955C25.3408 6.85599 26.5988 5.10553 27.7937 4.13358C29.4537 2.78321 32.5021 1.84207 34.4442 2.08031C35.8868 2.25726 38.1329 2.94908 38.9577 3.47048C41.4369 5.03766 43.0349 7.16203 43.6388 9.69324C44.1067 11.6545 44.1169 12.644 43.6876 14.4484C43.1374 16.7612 42.4902 17.9876 41.0651 19.4186C39.5817 20.9081 38.5462 21.6064 37.0216 22.1453C35.6648 22.625 33.156 22.8013 31.4675 22.5357ZM7.30698 22.3267C5.09299 21.6599 2.3776 19.53 1.35851 17.6608C0.331617 15.7773 0 14.4801 0 12.3466C0 11.1758 0.126086 9.95447 0.311175 9.33227C0.726664 7.93554 2.38325 5.50223 3.63734 4.44656C5.05184 3.25587 6.2887 2.64469 8.09636 2.24321C9.4224 1.94869 9.89503 1.93296 11.3426 2.13512C14.214 2.53612 16.359 3.765 17.957 5.92442C18.9835 7.31161 19.5296 8.95843 19.9037 11.7952C20.0689 13.048 20.3537 14.5314 20.5367 15.0916C21.0507 16.6659 22.3971 18.8355 23.7093 20.2043L24.9002 21.4465L20.9695 21.5736C18.8077 21.6435 15.6615 21.8849 13.978 22.11C10.8197 22.5325 8.26578 22.6154 7.30698 22.3267ZM12.9577 21.8878C15.87 21.4152 17.0304 21.3227 20.3479 21.2985L23.861 21.2729L23.6129 20.9687C23.4764 20.8014 23.2199 20.5036 23.043 20.307C22.8661 20.1104 22.6624 19.7961 22.5903 19.6086C22.5182 19.4211 22.3745 19.2677 22.2709 19.2677C22.1673 19.2677 22.0249 19.0385 21.9545 18.7584C21.8841 18.4783 21.7364 18.2491 21.6263 18.2491C21.5162 18.2491 21.4261 18.1116 21.4261 17.9436C21.4261 17.7755 21.2305 17.4427 20.9914 17.204C20.4969 16.7104 19.5896 13.6629 19.5896 12.4957C19.5896 12.0748 19.4978 11.7304 19.3855 11.7304C19.2679 11.7304 19.1815 11.0925 19.1815 10.2243C19.1815 9.07354 19.1093 8.69062 18.8754 8.60102C18.707 8.53653 18.5693 8.26769 18.5693 8.0036C18.5693 7.73951 18.3383 7.30677 18.0559 7.04195C17.7736 6.77714 17.3106 6.16531 17.027 5.68232C16.7435 5.19934 16.444 4.80416 16.3615 4.80416C16.2791 4.80416 15.9099 4.52915 15.5413 4.19303C15.1727 3.8569 14.762 3.58125 14.6286 3.58064C14.4952 3.57995 14.1106 3.42933 13.7739 3.24593C12.9862 2.81686 11.2714 2.5375 9.59074 2.56445C8.07443 2.58876 6.4815 2.93154 6.64647 3.19802C6.70782 3.29711 6.6321 3.37818 6.47821 3.37818C6.02313 3.37818 4.63466 4.12665 4.03015 4.69784C3.72151 4.98947 3.46899 5.41248 3.46899 5.63785C3.46899 5.90855 3.26449 6.1188 2.86648 6.25731C2.12732 6.51454 1.3767 7.73357 0.786477 9.63525C0.426327 10.7957 0.37826 11.3148 0.486829 12.8714C0.62969 14.9197 1.06155 16.6384 1.53108 17.0274C1.69908 17.1666 1.83652 17.4106 1.83652 17.5697C1.83652 17.9092 2.09258 18.2387 3.04615 19.1261C3.43086 19.4841 3.89307 19.9145 4.0733 20.0825C5.24053 21.171 7.00335 21.9567 8.27824 21.9567C8.66342 21.9567 8.97856 22.0465 8.97856 22.1562C8.97856 22.3662 10.7442 22.2471 12.9577 21.8878Z" fill="#F7BA16"/>
<path d="M31.4675 22.5357C29.341 22.2011 27.9671 21.5196 26.5328 20.0877C25.7263 19.2826 25.1966 18.527 24.8675 17.7123L24.385 16.5176L24.4071 12.9526C24.4259 9.92324 24.4913 9.2152 24.8426 8.23955C25.3408 6.85599 26.5988 5.10553 27.7937 4.13358C29.4537 2.78321 32.5021 1.84207 34.4442 2.08031C35.8868 2.25726 38.1329 2.94908 38.9577 3.47048C41.4369 5.03766 43.0349 7.16203 43.6388 9.69324C44.1067 11.6545 44.1169 12.644 43.6876 14.4484C43.1374 16.7612 42.4902 17.9876 41.0651 19.4186C39.5817 20.9081 38.5462 21.6064 37.0216 22.1453C35.6648 22.625 33.156 22.8013 31.4675 22.5357Z" fill="#F5C53D"/>
<path d="M52.9333 43V3H73.4667V8.6H59.3333V16.0667H72.1333V21.6667H59.3333V43H52.9333ZM90.2864 43.5333C87.8568 43.5333 85.6345 42.9111 83.6197 41.6667C81.6049 40.4222 79.9901 38.7481 78.7753 36.6444C77.5901 34.5407 76.9975 32.2148 76.9975 29.6667C76.9975 27.1185 77.5901 24.7926 78.7753 22.6889C79.9901 20.5852 81.6049 18.9111 83.6197 17.6667C85.6345 16.4222 87.8568 15.8 90.2864 15.8C92.0642 15.8 93.7086 16.1259 95.2197 16.7778C96.7605 17.4 98.079 18.2889 99.1753 19.4444V16.3333H104.731V43H99.1753V39.8889C98.079 41.0148 96.7605 41.9037 95.2197 42.5556C93.7086 43.2074 92.0642 43.5333 90.2864 43.5333ZM91.0864 37.9333C92.5679 37.9333 93.916 37.563 95.1308 36.8222C96.3753 36.0815 97.3531 35.0889 98.0642 33.8444C98.8049 32.6 99.1753 31.2074 99.1753 29.6667C99.1753 28.1556 98.8049 26.7778 98.0642 25.5333C97.3531 24.2593 96.3901 23.2519 95.1753 22.5111C93.9605 21.7704 92.5975 21.4 91.0864 21.4C89.6049 21.4 88.2419 21.7704 86.9975 22.5111C85.7827 23.2519 84.8049 24.2444 84.0642 25.4889C83.3531 26.7333 82.9975 28.1259 82.9975 29.6667C82.9975 31.1778 83.3531 32.5704 84.0642 33.8444C84.8049 35.0889 85.7827 36.0815 86.9975 36.8222C88.2123 37.563 89.5753 37.9333 91.0864 37.9333ZM114.47 43V16.3333H120.159V21.0444C121.107 19.5037 122.322 18.2889 123.803 17.4C125.285 16.5111 127.048 16.0667 129.092 16.0667L130.514 21.8889C129.951 21.7111 129.314 21.6222 128.603 21.6222C126.233 21.6222 124.322 22.3778 122.87 23.8889C121.448 25.4 120.737 27.563 120.737 30.3778V43H114.47ZM137.28 43V16.3333H142.969V19.7111C143.947 18.3481 145.161 17.3259 146.613 16.6444C148.065 15.963 149.591 15.6222 151.191 15.6222C152.88 15.6222 154.436 15.9926 155.858 16.7333C157.31 17.4741 158.51 18.5407 159.458 19.9333C160.495 18.5111 161.799 17.4444 163.369 16.7333C164.969 15.9926 166.687 15.6222 168.524 15.6222C170.48 15.6222 172.287 16.0815 173.947 17C175.606 17.8889 176.939 19.1778 177.947 20.8667C178.984 22.5556 179.502 24.5852 179.502 26.9556V43H173.236V27.8C173.236 25.8741 172.673 24.3333 171.547 23.1778C170.45 21.9926 169.058 21.4 167.369 21.4C166.391 21.4 165.443 21.6222 164.524 22.0667C163.636 22.5111 162.91 23.2074 162.347 24.1556C161.813 25.0741 161.547 26.2593 161.547 27.7111V43H155.236V27.8C155.236 26.4963 154.969 25.3704 154.436 24.4222C153.932 23.4444 153.236 22.6889 152.347 22.1556C151.458 21.6222 150.48 21.3556 149.413 21.3556C148.465 21.3556 147.532 21.5926 146.613 22.0667C145.724 22.5111 144.984 23.1926 144.391 24.1111C143.828 25.0296 143.547 26.2296 143.547 27.7111V43H137.28ZM200.404 43.5333C197.974 43.5333 195.752 42.9111 193.737 41.6667C191.722 40.4222 190.108 38.7481 188.893 36.6444C187.708 34.5407 187.115 32.2148 187.115 29.6667C187.115 27.1185 187.708 24.7926 188.893 22.6889C190.108 20.5852 191.722 18.9111 193.737 17.6667C195.752 16.4222 197.974 15.8 200.404 15.8C202.182 15.8 203.826 16.1259 205.337 16.7778C206.878 17.4 208.196 18.2889 209.293 19.4444V16.3333H214.848V43H209.293V39.8889C208.196 41.0148 206.878 41.9037 205.337 42.5556C203.826 43.2074 202.182 43.5333 200.404 43.5333ZM201.204 37.9333C202.685 37.9333 204.034 37.563 205.248 36.8222C206.493 36.0815 207.471 35.0889 208.182 33.8444C208.922 32.6 209.293 31.2074 209.293 29.6667C209.293 28.1556 208.922 26.7778 208.182 25.5333C207.471 24.2593 206.508 23.2519 205.293 22.5111C204.078 21.7704 202.715 21.4 201.204 21.4C199.722 21.4 198.359 21.7704 197.115 22.5111C195.9 23.2519 194.922 24.2444 194.182 25.4889C193.471 26.7333 193.115 28.1259 193.115 29.6667C193.115 31.1778 193.471 32.5704 194.182 33.8444C194.922 35.0889 195.9 36.0815 197.115 36.8222C198.33 37.563 199.693 37.9333 201.204 37.9333ZM232.41 43.7111C230.81 43.7111 229.15 43.4444 227.432 42.9111C225.743 42.3481 224.365 41.5037 223.299 40.3778L224.899 34.1111C225.758 35.3852 226.899 36.4519 228.321 37.3111C229.743 38.1704 231.225 38.6 232.765 38.6C234.039 38.6 234.973 38.3185 235.565 37.7556C236.158 37.1926 236.454 36.5111 236.454 35.7111C236.454 34.8222 236.143 34.1704 235.521 33.7556C234.899 33.3111 234.306 32.9852 233.743 32.7778L230.054 31.4C229.313 31.1037 228.439 30.6889 227.432 30.1556C226.454 29.5926 225.595 28.8074 224.854 27.8C224.113 26.7926 223.743 25.4741 223.743 23.8444C223.743 22.363 224.099 21 224.81 19.7556C225.55 18.5111 226.602 17.5185 227.965 16.7778C229.328 16.0074 230.958 15.6222 232.854 15.6222C234.484 15.6222 236.069 15.9037 237.61 16.4667C239.18 17.0296 240.41 17.7852 241.299 18.7333L239.743 24.9111C238.884 23.6074 237.802 22.5852 236.499 21.8444C235.225 21.1037 233.95 20.7333 232.676 20.7333C231.58 20.7333 230.75 21 230.188 21.5333C229.625 22.0667 229.343 22.6889 229.343 23.4C229.343 23.9333 229.536 24.437 229.921 24.9111C230.306 25.3556 230.928 25.7407 231.788 26.0667L235.299 27.4C236.128 27.6963 237.062 28.1259 238.099 28.6889C239.165 29.2519 240.084 30.0519 240.854 31.0889C241.625 32.1259 242.01 33.5333 242.01 35.3111C242.01 37.8 241.106 39.8296 239.299 41.4C237.521 42.9407 235.225 43.7111 232.41 43.7111ZM262.895 43.7111C260.287 43.7111 257.902 43.0889 255.739 41.8444C253.576 40.5704 251.858 38.8667 250.584 36.7333C249.31 34.6 248.673 32.2444 248.673 29.6667C248.673 27.0593 249.31 24.7037 250.584 22.6C251.858 20.4667 253.576 18.7778 255.739 17.5333C257.902 16.2593 260.287 15.6222 262.895 15.6222C265.532 15.6222 267.917 16.2593 270.05 17.5333C272.213 18.7778 273.932 20.4667 275.206 22.6C276.48 24.7037 277.117 27.0593 277.117 29.6667C277.117 32.2444 276.48 34.6 275.206 36.7333C273.932 38.8667 272.213 40.5704 270.05 41.8444C267.917 43.0889 265.532 43.7111 262.895 43.7111ZM262.895 37.9778C264.406 37.9778 265.784 37.6074 267.028 36.8667C268.273 36.0963 269.25 35.0889 269.961 33.8444C270.702 32.6 271.073 31.2074 271.073 29.6667C271.073 28.1259 270.702 26.7333 269.961 25.4889C269.25 24.2444 268.273 23.2519 267.028 22.5111C265.784 21.7407 264.406 21.3556 262.895 21.3556C261.384 21.3556 260.006 21.7407 258.761 22.5111C257.517 23.2519 256.524 24.2444 255.784 25.4889C255.073 26.7333 254.717 28.1259 254.717 29.6667C254.717 31.2074 255.073 32.6 255.784 33.8444C256.524 35.0889 257.502 36.0963 258.717 36.8667C259.961 37.6074 261.354 37.9778 262.895 37.9778ZM285.314 43V0.333332H291.581V43H285.314Z" fill="#C2410C"/>
</svg>
